<svg width="138" height="22" viewBox="0 0 138 22" fill="none" xmlns="http://www.w3.org/2000/svg">
<path d="M40.5204 3.8668H34.1104V0.0961914H51.5272V3.8668H45.1377V21.6401H40.5204V3.8668Z" fill="white"/>
<path d="M51.9691 10.0504C51.9691 8.23024 51.9691 6.74599 51.9314 5.43655H56.2779C56.343 5.86846 56.3944 7.35957 56.3944 8.28165C57.08 6.52661 58.7425 5.0972 61.5362 5.08691V9.3717C58.2626 9.29286 56.3944 10.2184 56.3944 14.5134V21.6365H51.9691V10.0504Z" fill="white"/>
<path d="M77.013 17.4513C77.0089 18.8505 77.0822 20.2489 77.2323 21.6401H73.0607C72.9225 21.0972 72.8443 20.5409 72.8276 19.981C72.2243 20.9716 71.0383 21.9966 68.2788 21.9966C64.3506 21.9966 62.7498 19.4428 62.7498 16.944C62.7498 13.4064 65.5229 11.5623 70.4487 11.5623H72.6802V10.5339C72.6802 9.34788 72.2654 8.23726 70.219 8.23726C68.3268 8.23726 67.9052 9.07365 67.7098 10.2494H63.473C63.7027 7.43515 65.4338 5.05281 70.3698 5.07337C74.6066 5.09737 77.013 6.7153 77.013 10.6059V17.4513ZM72.711 14.2874H70.8703C68.128 14.2874 67.2162 15.182 67.2162 16.6492C67.2162 17.8078 67.9258 18.7881 69.5369 18.7881C72.3271 18.7881 72.7282 16.8651 72.7282 14.6953L72.711 14.2874Z" fill="white"/>
<path d="M93.7272 16.32C93.1856 19.1308 91.2591 21.9999 86.4842 21.9999C81.459 21.9999 78.9189 18.5926 78.9189 13.636C78.9189 8.78217 81.8223 5.06641 86.7104 5.06641C92.1401 5.06641 93.638 8.96385 93.7272 10.8937H89.3807C89.127 9.54658 88.3935 8.5388 86.6384 8.5388C84.5509 8.5388 83.4437 10.3864 83.4437 13.4954C83.4437 17.0124 84.6537 18.5755 86.6076 18.5755C88.2084 18.5755 88.9865 17.6054 89.3773 16.3268L93.7272 16.32Z" fill="white"/>
<path d="M100.037 12.2579C101.223 10.6708 103.366 8.10339 105.522 5.43654H110.602C110.286 5.81703 105.354 11.1816 105.011 11.6066C105.374 12.1928 110.749 21.0092 111.123 21.6536H106.087C105.871 21.2491 102.286 14.8973 102.06 14.4723C102.06 14.4894 100.051 16.457 100.037 16.4741V21.6536H95.5811V0.0856934H100.037V12.2579Z" fill="white"/>
<path d="M115.394 14.4998C115.394 16.5188 116.361 18.524 118.63 18.524C120.509 18.524 121.057 17.6842 121.444 16.7553H125.873C125.256 18.8805 123.474 21.9999 118.51 21.9999C113.207 21.9999 110.924 18.099 110.924 13.7319C110.924 8.86099 113.413 5.07324 118.675 5.07324C124.214 5.07324 126.058 9.07009 126.058 13.1423C126.066 13.6001 126.047 14.058 126 14.5135L115.394 14.4998ZM121.633 11.7404C121.595 9.86535 120.844 8.27826 118.657 8.27826C116.471 8.27826 115.641 9.85506 115.483 11.7404H121.633Z" fill="white"/>
<path d="M127.896 10.0504C127.896 8.23024 127.896 6.74599 127.861 5.43655H132.208C132.273 5.86846 132.324 7.35957 132.324 8.28165C133.01 6.52661 134.672 5.0972 137.466 5.08691V9.3717C134.193 9.29286 132.324 10.2184 132.324 14.5134V21.6365H127.868L127.896 10.0504Z" fill="white"/>
<path d="M31.5328 21.4823H16.0698L18.0031 17.6089L28.4477 17.8043L22.0411 9.50206L23.9641 5.64575L33.2467 18.0339L31.5328 21.4823Z" fill="#FE7912"/>
<path d="M9.47119 21.4958L19.7821 0.0512695H23.7584L13.4749 21.4958H9.47119Z" fill="#FE7912"/>
<path d="M1.69677 0H17.1597L15.2298 3.87345L4.78182 3.67463L11.1884 11.9768L9.28256 15.8434L0 3.44154L1.69677 0Z" fill="#FE7912"/>
</svg>
